<mxfile host="app.diagrams.net" agent="Mozilla/5.0 (Windows NT 10.0; Win64; x64) AppleWebKit/537.36 (KHTML, like Gecko) Chrome/137.0.0.0 Safari/537.36 Edg/137.0.0.0" version="27.1.6" pages="3">
  <diagram name="resourcegroups" id="-_LWccqno5otxB16wBUi">
    <mxGraphModel dx="1668" dy="889" grid="1" gridSize="10" guides="1" tooltips="1" connect="1" arrows="1" fold="1" page="1" pageScale="1" pageWidth="827" pageHeight="1169" math="0" shadow="0">
      <root>
        <mxCell id="0" />
        <mxCell id="1" parent="0" />
        <mxCell id="Mon_6iK1SjojRYiVnFBE-1" value="Prefix" style="rounded=1;whiteSpace=wrap;html=1;align=left;spacing=15;" vertex="1" parent="1">
          <mxGeometry x="160" y="160" width="400" height="80" as="geometry" />
        </mxCell>
        <mxCell id="Mon_6iK1SjojRYiVnFBE-2" value="Environment" style="rounded=1;whiteSpace=wrap;html=1;strokeColor=default;align=left;verticalAlign=middle;spacing=15;fontFamily=Helvetica;fontSize=12;fontColor=default;fillColor=default;" vertex="1" parent="1">
          <mxGeometry x="160" y="273" width="550" height="80" as="geometry" />
        </mxCell>
        <mxCell id="Mon_6iK1SjojRYiVnFBE-3" value="Region" style="rounded=1;whiteSpace=wrap;html=1;strokeColor=default;align=left;verticalAlign=middle;spacing=15;fontFamily=Helvetica;fontSize=12;fontColor=default;fillColor=default;" vertex="1" parent="1">
          <mxGeometry x="160" y="385" width="700" height="80" as="geometry" />
        </mxCell>
        <mxCell id="Mon_6iK1SjojRYiVnFBE-4" value="Workload" style="rounded=1;whiteSpace=wrap;html=1;strokeColor=default;align=left;verticalAlign=middle;spacing=15;fontFamily=Helvetica;fontSize=12;fontColor=default;fillColor=default;" vertex="1" parent="1">
          <mxGeometry x="160" y="498" width="840" height="80" as="geometry" />
        </mxCell>
        <mxCell id="Mon_6iK1SjojRYiVnFBE-5" value="Resource Type" style="rounded=1;whiteSpace=wrap;html=1;strokeColor=default;align=left;verticalAlign=middle;spacing=15;fontFamily=Helvetica;fontSize=12;fontColor=default;fillColor=default;" vertex="1" parent="1">
          <mxGeometry x="160" y="610" width="980" height="80" as="geometry" />
        </mxCell>
        <mxCell id="Mon_6iK1SjojRYiVnFBE-24" style="edgeStyle=orthogonalEdgeStyle;rounded=0;orthogonalLoop=1;jettySize=auto;html=1;curved=1;exitX=0.5;exitY=1;exitDx=0;exitDy=0;shadow=1;" edge="1" parent="1" source="Mon_6iK1SjojRYiVnFBE-11" target="Mon_6iK1SjojRYiVnFBE-15">
          <mxGeometry relative="1" as="geometry" />
        </mxCell>
        <mxCell id="Mon_6iK1SjojRYiVnFBE-25" style="edgeStyle=orthogonalEdgeStyle;rounded=0;orthogonalLoop=1;jettySize=auto;html=1;entryX=0.5;entryY=0;entryDx=0;entryDy=0;curved=1;shadow=1;" edge="1" parent="1" source="Mon_6iK1SjojRYiVnFBE-11" target="Mon_6iK1SjojRYiVnFBE-12">
          <mxGeometry relative="1" as="geometry" />
        </mxCell>
        <mxCell id="Mon_6iK1SjojRYiVnFBE-26" style="edgeStyle=orthogonalEdgeStyle;rounded=0;orthogonalLoop=1;jettySize=auto;html=1;entryX=0.5;entryY=0;entryDx=0;entryDy=0;exitX=0.5;exitY=1;exitDx=0;exitDy=0;curved=1;shadow=1;" edge="1" parent="1" source="Mon_6iK1SjojRYiVnFBE-11" target="Mon_6iK1SjojRYiVnFBE-13">
          <mxGeometry relative="1" as="geometry" />
        </mxCell>
        <mxCell id="Mon_6iK1SjojRYiVnFBE-11" value="webflow" style="rounded=1;whiteSpace=wrap;html=1;fontStyle=1;shadow=1;" vertex="1" parent="1">
          <mxGeometry x="430" y="172.5" width="120" height="55" as="geometry" />
        </mxCell>
        <mxCell id="Mon_6iK1SjojRYiVnFBE-12" value="test" style="rounded=1;whiteSpace=wrap;html=1;shadow=1;" vertex="1" parent="1">
          <mxGeometry x="430" y="285.5" width="120" height="55" as="geometry" />
        </mxCell>
        <mxCell id="Mon_6iK1SjojRYiVnFBE-27" style="edgeStyle=orthogonalEdgeStyle;rounded=0;orthogonalLoop=1;jettySize=auto;html=1;entryX=0.5;entryY=0;entryDx=0;entryDy=0;curved=1;exitX=0.5;exitY=1;exitDx=0;exitDy=0;shadow=1;" edge="1" parent="1" source="Mon_6iK1SjojRYiVnFBE-13" target="Mon_6iK1SjojRYiVnFBE-18">
          <mxGeometry relative="1" as="geometry" />
        </mxCell>
        <mxCell id="Mon_6iK1SjojRYiVnFBE-28" style="edgeStyle=orthogonalEdgeStyle;rounded=0;orthogonalLoop=1;jettySize=auto;html=1;entryX=0.5;entryY=0;entryDx=0;entryDy=0;curved=1;shadow=1;" edge="1" parent="1" source="Mon_6iK1SjojRYiVnFBE-13" target="Mon_6iK1SjojRYiVnFBE-17">
          <mxGeometry relative="1" as="geometry" />
        </mxCell>
        <mxCell id="Mon_6iK1SjojRYiVnFBE-29" style="edgeStyle=orthogonalEdgeStyle;rounded=0;orthogonalLoop=1;jettySize=auto;html=1;entryX=0.5;entryY=0;entryDx=0;entryDy=0;curved=1;exitX=0.5;exitY=1;exitDx=0;exitDy=0;shadow=1;" edge="1" parent="1" source="Mon_6iK1SjojRYiVnFBE-13" target="Mon_6iK1SjojRYiVnFBE-16">
          <mxGeometry relative="1" as="geometry" />
        </mxCell>
        <mxCell id="Mon_6iK1SjojRYiVnFBE-13" value="prod" style="rounded=1;whiteSpace=wrap;html=1;fontStyle=1;shadow=1;" vertex="1" parent="1">
          <mxGeometry x="580" y="285.5" width="120" height="55" as="geometry" />
        </mxCell>
        <mxCell id="Mon_6iK1SjojRYiVnFBE-15" value="dev" style="rounded=1;whiteSpace=wrap;html=1;shadow=1;" vertex="1" parent="1">
          <mxGeometry x="280" y="285.5" width="120" height="55" as="geometry" />
        </mxCell>
        <mxCell id="Mon_6iK1SjojRYiVnFBE-30" style="edgeStyle=orthogonalEdgeStyle;rounded=0;orthogonalLoop=1;jettySize=auto;html=1;entryX=0.5;entryY=0;entryDx=0;entryDy=0;curved=1;exitX=0.5;exitY=1;exitDx=0;exitDy=0;shadow=1;" edge="1" parent="1" source="Mon_6iK1SjojRYiVnFBE-16" target="Mon_6iK1SjojRYiVnFBE-19">
          <mxGeometry relative="1" as="geometry" />
        </mxCell>
        <mxCell id="Mon_6iK1SjojRYiVnFBE-31" style="edgeStyle=orthogonalEdgeStyle;rounded=0;orthogonalLoop=1;jettySize=auto;html=1;entryX=0.5;entryY=0;entryDx=0;entryDy=0;curved=1;shadow=1;" edge="1" parent="1" source="Mon_6iK1SjojRYiVnFBE-16" target="Mon_6iK1SjojRYiVnFBE-20">
          <mxGeometry relative="1" as="geometry" />
        </mxCell>
        <mxCell id="Mon_6iK1SjojRYiVnFBE-32" style="edgeStyle=orthogonalEdgeStyle;rounded=0;orthogonalLoop=1;jettySize=auto;html=1;entryX=0.5;entryY=0;entryDx=0;entryDy=0;curved=1;exitX=0.5;exitY=1;exitDx=0;exitDy=0;shadow=1;" edge="1" parent="1" source="Mon_6iK1SjojRYiVnFBE-16" target="Mon_6iK1SjojRYiVnFBE-21">
          <mxGeometry relative="1" as="geometry" />
        </mxCell>
        <mxCell id="Mon_6iK1SjojRYiVnFBE-16" value="westeurope" style="rounded=1;whiteSpace=wrap;html=1;fontStyle=1;shadow=1;" vertex="1" parent="1">
          <mxGeometry x="730" y="397.5" width="120" height="55" as="geometry" />
        </mxCell>
        <mxCell id="Mon_6iK1SjojRYiVnFBE-17" value="switzerlandnorth" style="rounded=1;whiteSpace=wrap;html=1;shadow=1;" vertex="1" parent="1">
          <mxGeometry x="580" y="397.5" width="120" height="55" as="geometry" />
        </mxCell>
        <mxCell id="Mon_6iK1SjojRYiVnFBE-18" value="eastus" style="rounded=1;whiteSpace=wrap;html=1;shadow=1;" vertex="1" parent="1">
          <mxGeometry x="430" y="397.5" width="120" height="55" as="geometry" />
        </mxCell>
        <mxCell id="Mon_6iK1SjojRYiVnFBE-19" value="avd" style="rounded=1;whiteSpace=wrap;html=1;fontStyle=0;shadow=1;" vertex="1" parent="1">
          <mxGeometry x="580" y="510.5" width="120" height="55" as="geometry" />
        </mxCell>
        <mxCell id="Mon_6iK1SjojRYiVnFBE-20" value="network" style="rounded=1;whiteSpace=wrap;html=1;fontStyle=0;shadow=1;" vertex="1" parent="1">
          <mxGeometry x="730" y="510.5" width="120" height="55" as="geometry" />
        </mxCell>
        <mxCell id="Mon_6iK1SjojRYiVnFBE-33" style="edgeStyle=orthogonalEdgeStyle;rounded=0;orthogonalLoop=1;jettySize=auto;html=1;entryX=0.5;entryY=0;entryDx=0;entryDy=0;curved=1;exitX=0.5;exitY=1;exitDx=0;exitDy=0;shadow=1;" edge="1" parent="1" source="Mon_6iK1SjojRYiVnFBE-21" target="Mon_6iK1SjojRYiVnFBE-23">
          <mxGeometry relative="1" as="geometry" />
        </mxCell>
        <mxCell id="Mon_6iK1SjojRYiVnFBE-21" value="sessionhosts" style="rounded=1;whiteSpace=wrap;html=1;fontStyle=1;shadow=1;" vertex="1" parent="1">
          <mxGeometry x="870" y="510.5" width="120" height="55" as="geometry" />
        </mxCell>
        <mxCell id="Mon_6iK1SjojRYiVnFBE-23" value="rg" style="rounded=1;whiteSpace=wrap;html=1;fontStyle=1;shadow=1;" vertex="1" parent="1">
          <mxGeometry x="1010" y="622.5" width="120" height="55" as="geometry" />
        </mxCell>
        <mxCell id="Mon_6iK1SjojRYiVnFBE-34" value="" style="shape=curlyBracket;whiteSpace=wrap;html=1;rounded=1;flipH=1;labelPosition=right;verticalLabelPosition=middle;align=left;verticalAlign=middle;rotation=-50;" vertex="1" parent="1">
          <mxGeometry x="900" y="7.11" width="20" height="733.73" as="geometry" />
        </mxCell>
        <mxCell id="Mon_6iK1SjojRYiVnFBE-35" value="webflow-prod-westeurope-sessionhosts-rg" style="text;html=1;align=center;verticalAlign=middle;resizable=0;points=[];autosize=1;strokeColor=none;fillColor=none;fontSize=18;fontStyle=1" vertex="1" parent="1">
          <mxGeometry x="945" y="345" width="360" height="40" as="geometry" />
        </mxCell>
      </root>
    </mxGraphModel>
  </diagram>
  <diagram id="yZAfL-JHrDDg_srCCLXH" name="resource">
    <mxGraphModel dx="1418" dy="756" grid="1" gridSize="10" guides="1" tooltips="1" connect="1" arrows="1" fold="1" page="1" pageScale="1" pageWidth="827" pageHeight="1169" math="0" shadow="0">
      <root>
        <mxCell id="0" />
        <mxCell id="1" parent="0" />
        <mxCell id="RcgPg3QWhEkQLm2hiTb7-1" value="Prefix" style="rounded=1;whiteSpace=wrap;html=1;align=left;spacing=15;" parent="1" vertex="1">
          <mxGeometry x="50" y="579.501720858842" width="400" height="80" as="geometry" />
        </mxCell>
        <mxCell id="RcgPg3QWhEkQLm2hiTb7-2" value="Environment" style="rounded=1;whiteSpace=wrap;html=1;strokeColor=default;align=left;verticalAlign=middle;spacing=15;fontFamily=Helvetica;fontSize=12;fontColor=default;fillColor=default;" parent="1" vertex="1">
          <mxGeometry x="50" y="692.501720858842" width="550" height="80" as="geometry" />
        </mxCell>
        <mxCell id="RcgPg3QWhEkQLm2hiTb7-3" value="Region" style="rounded=1;whiteSpace=wrap;html=1;strokeColor=default;align=left;verticalAlign=middle;spacing=15;fontFamily=Helvetica;fontSize=12;fontColor=default;fillColor=default;" parent="1" vertex="1">
          <mxGeometry x="50" y="804.501720858842" width="700" height="80" as="geometry" />
        </mxCell>
        <mxCell id="RcgPg3QWhEkQLm2hiTb7-4" value="Workload" style="rounded=1;whiteSpace=wrap;html=1;strokeColor=default;align=left;verticalAlign=middle;spacing=15;fontFamily=Helvetica;fontSize=12;fontColor=default;fillColor=default;" parent="1" vertex="1">
          <mxGeometry x="50" y="917.501720858842" width="840" height="80" as="geometry" />
        </mxCell>
        <mxCell id="RcgPg3QWhEkQLm2hiTb7-5" value="Resource Type" style="rounded=1;whiteSpace=wrap;html=1;strokeColor=default;align=left;verticalAlign=middle;spacing=15;fontFamily=Helvetica;fontSize=12;fontColor=default;fillColor=default;" parent="1" vertex="1">
          <mxGeometry x="50" y="1029.501720858842" width="980" height="80" as="geometry" />
        </mxCell>
        <mxCell id="RcgPg3QWhEkQLm2hiTb7-6" style="edgeStyle=orthogonalEdgeStyle;rounded=0;orthogonalLoop=1;jettySize=auto;html=1;curved=1;exitX=0.5;exitY=1;exitDx=0;exitDy=0;shadow=1;" parent="1" source="RcgPg3QWhEkQLm2hiTb7-9" target="RcgPg3QWhEkQLm2hiTb7-15" edge="1">
          <mxGeometry relative="1" as="geometry" />
        </mxCell>
        <mxCell id="RcgPg3QWhEkQLm2hiTb7-7" style="edgeStyle=orthogonalEdgeStyle;rounded=0;orthogonalLoop=1;jettySize=auto;html=1;entryX=0.5;entryY=0;entryDx=0;entryDy=0;curved=1;shadow=1;" parent="1" source="RcgPg3QWhEkQLm2hiTb7-9" target="RcgPg3QWhEkQLm2hiTb7-10" edge="1">
          <mxGeometry relative="1" as="geometry" />
        </mxCell>
        <mxCell id="RcgPg3QWhEkQLm2hiTb7-8" style="edgeStyle=orthogonalEdgeStyle;rounded=0;orthogonalLoop=1;jettySize=auto;html=1;entryX=0.5;entryY=0;entryDx=0;entryDy=0;exitX=0.5;exitY=1;exitDx=0;exitDy=0;curved=1;shadow=1;" parent="1" source="RcgPg3QWhEkQLm2hiTb7-9" target="RcgPg3QWhEkQLm2hiTb7-14" edge="1">
          <mxGeometry relative="1" as="geometry" />
        </mxCell>
        <mxCell id="RcgPg3QWhEkQLm2hiTb7-9" value="webflow" style="rounded=1;whiteSpace=wrap;html=1;fontStyle=1;shadow=1;" parent="1" vertex="1">
          <mxGeometry x="320" y="592.001720858842" width="120" height="55" as="geometry" />
        </mxCell>
        <mxCell id="RcgPg3QWhEkQLm2hiTb7-10" value="test" style="rounded=1;whiteSpace=wrap;html=1;shadow=1;" parent="1" vertex="1">
          <mxGeometry x="320" y="705.001720858842" width="120" height="55" as="geometry" />
        </mxCell>
        <mxCell id="RcgPg3QWhEkQLm2hiTb7-11" style="edgeStyle=orthogonalEdgeStyle;rounded=0;orthogonalLoop=1;jettySize=auto;html=1;entryX=0.5;entryY=0;entryDx=0;entryDy=0;curved=1;exitX=0.5;exitY=1;exitDx=0;exitDy=0;shadow=1;" parent="1" source="RcgPg3QWhEkQLm2hiTb7-14" target="RcgPg3QWhEkQLm2hiTb7-21" edge="1">
          <mxGeometry relative="1" as="geometry" />
        </mxCell>
        <mxCell id="RcgPg3QWhEkQLm2hiTb7-12" style="edgeStyle=orthogonalEdgeStyle;rounded=0;orthogonalLoop=1;jettySize=auto;html=1;entryX=0.5;entryY=0;entryDx=0;entryDy=0;curved=1;shadow=1;" parent="1" source="RcgPg3QWhEkQLm2hiTb7-14" target="RcgPg3QWhEkQLm2hiTb7-20" edge="1">
          <mxGeometry relative="1" as="geometry" />
        </mxCell>
        <mxCell id="RcgPg3QWhEkQLm2hiTb7-13" style="edgeStyle=orthogonalEdgeStyle;rounded=0;orthogonalLoop=1;jettySize=auto;html=1;entryX=0.5;entryY=0;entryDx=0;entryDy=0;curved=1;exitX=0.5;exitY=1;exitDx=0;exitDy=0;shadow=1;" parent="1" source="RcgPg3QWhEkQLm2hiTb7-14" target="RcgPg3QWhEkQLm2hiTb7-19" edge="1">
          <mxGeometry relative="1" as="geometry" />
        </mxCell>
        <mxCell id="RcgPg3QWhEkQLm2hiTb7-14" value="prod" style="rounded=1;whiteSpace=wrap;html=1;fontStyle=1;shadow=1;" parent="1" vertex="1">
          <mxGeometry x="470" y="705.001720858842" width="120" height="55" as="geometry" />
        </mxCell>
        <mxCell id="RcgPg3QWhEkQLm2hiTb7-15" value="dev" style="rounded=1;whiteSpace=wrap;html=1;shadow=1;" parent="1" vertex="1">
          <mxGeometry x="170" y="705.001720858842" width="120" height="55" as="geometry" />
        </mxCell>
        <mxCell id="RcgPg3QWhEkQLm2hiTb7-16" style="edgeStyle=orthogonalEdgeStyle;rounded=0;orthogonalLoop=1;jettySize=auto;html=1;entryX=0.5;entryY=0;entryDx=0;entryDy=0;curved=1;exitX=0.5;exitY=1;exitDx=0;exitDy=0;shadow=1;" parent="1" source="RcgPg3QWhEkQLm2hiTb7-19" target="RcgPg3QWhEkQLm2hiTb7-22" edge="1">
          <mxGeometry relative="1" as="geometry" />
        </mxCell>
        <mxCell id="RcgPg3QWhEkQLm2hiTb7-17" style="edgeStyle=orthogonalEdgeStyle;rounded=0;orthogonalLoop=1;jettySize=auto;html=1;entryX=0.5;entryY=0;entryDx=0;entryDy=0;curved=1;shadow=1;" parent="1" source="RcgPg3QWhEkQLm2hiTb7-19" target="RcgPg3QWhEkQLm2hiTb7-23" edge="1">
          <mxGeometry relative="1" as="geometry" />
        </mxCell>
        <mxCell id="RcgPg3QWhEkQLm2hiTb7-18" style="edgeStyle=orthogonalEdgeStyle;rounded=0;orthogonalLoop=1;jettySize=auto;html=1;entryX=0.5;entryY=0;entryDx=0;entryDy=0;curved=1;exitX=0.5;exitY=1;exitDx=0;exitDy=0;shadow=1;" parent="1" source="RcgPg3QWhEkQLm2hiTb7-19" target="RcgPg3QWhEkQLm2hiTb7-25" edge="1">
          <mxGeometry relative="1" as="geometry" />
        </mxCell>
        <mxCell id="RcgPg3QWhEkQLm2hiTb7-19" value="westeurope" style="rounded=1;whiteSpace=wrap;html=1;fontStyle=1;shadow=1;" parent="1" vertex="1">
          <mxGeometry x="620" y="817.001720858842" width="120" height="55" as="geometry" />
        </mxCell>
        <mxCell id="RcgPg3QWhEkQLm2hiTb7-20" value="switzerlandnorth" style="rounded=1;whiteSpace=wrap;html=1;shadow=1;" parent="1" vertex="1">
          <mxGeometry x="470" y="817.001720858842" width="120" height="55" as="geometry" />
        </mxCell>
        <mxCell id="RcgPg3QWhEkQLm2hiTb7-21" value="eastus" style="rounded=1;whiteSpace=wrap;html=1;shadow=1;" parent="1" vertex="1">
          <mxGeometry x="320" y="817.001720858842" width="120" height="55" as="geometry" />
        </mxCell>
        <mxCell id="RcgPg3QWhEkQLm2hiTb7-22" value="sessionhosts" style="rounded=1;whiteSpace=wrap;html=1;fontStyle=0;shadow=1;" parent="1" vertex="1">
          <mxGeometry x="470" y="930.001720858842" width="120" height="55" as="geometry" />
        </mxCell>
        <mxCell id="RcgPg3QWhEkQLm2hiTb7-23" value="network" style="rounded=1;whiteSpace=wrap;html=1;fontStyle=0;shadow=1;" parent="1" vertex="1">
          <mxGeometry x="620" y="930.001720858842" width="120" height="55" as="geometry" />
        </mxCell>
        <mxCell id="RcgPg3QWhEkQLm2hiTb7-24" style="edgeStyle=orthogonalEdgeStyle;rounded=0;orthogonalLoop=1;jettySize=auto;html=1;entryX=0.5;entryY=0;entryDx=0;entryDy=0;curved=1;exitX=0.5;exitY=1;exitDx=0;exitDy=0;shadow=1;strokeColor=default;align=center;verticalAlign=middle;fontFamily=Helvetica;fontSize=11;fontColor=default;labelBackgroundColor=default;endArrow=classic;" parent="1" source="RcgPg3QWhEkQLm2hiTb7-25" target="RcgPg3QWhEkQLm2hiTb7-26" edge="1">
          <mxGeometry relative="1" as="geometry" />
        </mxCell>
        <mxCell id="RcgPg3QWhEkQLm2hiTb7-31" style="edgeStyle=orthogonalEdgeStyle;rounded=0;orthogonalLoop=1;jettySize=auto;html=1;entryX=0.5;entryY=0;entryDx=0;entryDy=0;shadow=1;strokeColor=default;align=center;verticalAlign=middle;fontFamily=Helvetica;fontSize=11;fontColor=default;labelBackgroundColor=default;endArrow=classic;curved=1;" parent="1" source="RcgPg3QWhEkQLm2hiTb7-25" target="RcgPg3QWhEkQLm2hiTb7-29" edge="1">
          <mxGeometry relative="1" as="geometry" />
        </mxCell>
        <mxCell id="RcgPg3QWhEkQLm2hiTb7-32" style="edgeStyle=orthogonalEdgeStyle;rounded=0;orthogonalLoop=1;jettySize=auto;html=1;entryX=0.5;entryY=0;entryDx=0;entryDy=0;shadow=1;strokeColor=default;align=center;verticalAlign=middle;fontFamily=Helvetica;fontSize=11;fontColor=default;labelBackgroundColor=default;endArrow=classic;curved=1;exitX=0.5;exitY=1;exitDx=0;exitDy=0;" parent="1" source="RcgPg3QWhEkQLm2hiTb7-25" target="RcgPg3QWhEkQLm2hiTb7-30" edge="1">
          <mxGeometry relative="1" as="geometry" />
        </mxCell>
        <mxCell id="RcgPg3QWhEkQLm2hiTb7-25" value="avd" style="rounded=1;whiteSpace=wrap;html=1;fontStyle=1;shadow=1;" parent="1" vertex="1">
          <mxGeometry x="760" y="930.001720858842" width="120" height="55" as="geometry" />
        </mxCell>
        <mxCell id="RcgPg3QWhEkQLm2hiTb7-26" value="hostpool" style="rounded=1;whiteSpace=wrap;html=1;fontStyle=1;shadow=1;" parent="1" vertex="1">
          <mxGeometry x="900" y="1042.001720858842" width="120" height="55" as="geometry" />
        </mxCell>
        <mxCell id="RcgPg3QWhEkQLm2hiTb7-27" value="" style="shape=curlyBracket;whiteSpace=wrap;html=1;rounded=1;flipH=1;labelPosition=right;verticalLabelPosition=middle;align=left;verticalAlign=middle;rotation=-50;" parent="1" vertex="1">
          <mxGeometry x="790" y="426.61172085884203" width="20" height="733.73" as="geometry" />
        </mxCell>
        <mxCell id="RcgPg3QWhEkQLm2hiTb7-28" value="webflow-prod-westeurope-avd-hostpool" style="text;html=1;align=center;verticalAlign=middle;resizable=0;points=[];autosize=1;strokeColor=none;fillColor=none;fontSize=18;fontStyle=1" parent="1" vertex="1">
          <mxGeometry x="845" y="764.501720858842" width="340" height="40" as="geometry" />
        </mxCell>
        <mxCell id="RcgPg3QWhEkQLm2hiTb7-29" value="workspace" style="rounded=1;whiteSpace=wrap;html=1;fontStyle=0;shadow=1;" parent="1" vertex="1">
          <mxGeometry x="760" y="1042" width="120" height="55" as="geometry" />
        </mxCell>
        <mxCell id="RcgPg3QWhEkQLm2hiTb7-30" value="appgroup" style="rounded=1;whiteSpace=wrap;html=1;fontStyle=0;shadow=1;" parent="1" vertex="1">
          <mxGeometry x="620" y="1042" width="120" height="55" as="geometry" />
        </mxCell>
        <mxCell id="RcgPg3QWhEkQLm2hiTb7-33" value="Instance" style="rounded=1;whiteSpace=wrap;html=1;strokeColor=default;align=left;verticalAlign=middle;spacing=15;fontFamily=Helvetica;fontSize=12;fontColor=default;fillColor=default;fontStyle=2;dashed=1;dashPattern=8 8;" parent="1" vertex="1">
          <mxGeometry x="50" y="1140" width="1120" height="80" as="geometry" />
        </mxCell>
        <mxCell id="RcgPg3QWhEkQLm2hiTb7-35" value="001" style="rounded=1;whiteSpace=wrap;html=1;fontStyle=2;shadow=1;dashed=1;dashPattern=8 8;" parent="1" vertex="1">
          <mxGeometry x="1040" y="1152.5" width="120" height="55" as="geometry" />
        </mxCell>
        <mxCell id="RcgPg3QWhEkQLm2hiTb7-36" style="edgeStyle=orthogonalEdgeStyle;rounded=0;orthogonalLoop=1;jettySize=auto;html=1;entryX=0.5;entryY=0;entryDx=0;entryDy=0;shadow=1;strokeColor=default;align=center;verticalAlign=middle;fontFamily=Helvetica;fontSize=11;fontColor=default;labelBackgroundColor=default;endArrow=classic;curved=1;exitX=0.5;exitY=1;exitDx=0;exitDy=0;" parent="1" source="RcgPg3QWhEkQLm2hiTb7-26" target="RcgPg3QWhEkQLm2hiTb7-35" edge="1">
          <mxGeometry relative="1" as="geometry" />
        </mxCell>
        <mxCell id="RcgPg3QWhEkQLm2hiTb7-37" value="" style="shape=curlyBracket;whiteSpace=wrap;html=1;rounded=1;flipH=1;labelPosition=right;verticalLabelPosition=middle;align=left;verticalAlign=middle;rotation=-50;dashed=1;" parent="1" vertex="1">
          <mxGeometry x="1155.51" y="998.1" width="20" height="200" as="geometry" />
        </mxCell>
      </root>
    </mxGraphModel>
  </diagram>
  <diagram id="M5vvzqDkFdadYuJb7pvT" name="avatar">
    <mxGraphModel dx="1350" dy="720" grid="1" gridSize="10" guides="1" tooltips="1" connect="1" arrows="1" fold="1" page="1" pageScale="1" pageWidth="827" pageHeight="1169" math="0" shadow="0">
      <root>
        <mxCell id="0" />
        <mxCell id="1" parent="0" />
        <mxCell id="t35xv_pp_AI4C0QZPNr3-1" value="" style="shape=image;verticalLabelPosition=bottom;labelBackgroundColor=default;verticalAlign=top;aspect=fixed;imageAspect=0;image=https://upload.wikimedia.org/wikipedia/commons/thumb/f/fa/Microsoft_Azure.svg/1200px-Microsoft_Azure.svg.png;rotation=0;" vertex="1" parent="1">
          <mxGeometry x="110" y="450" width="180" height="180" as="geometry" />
        </mxCell>
        <mxCell id="t35xv_pp_AI4C0QZPNr3-2" value="&lt;font style=&quot;font-size: 120px;&quot;&gt;B&lt;/font&gt;" style="text;html=1;align=center;verticalAlign=middle;whiteSpace=wrap;rounded=0;strokeWidth=7;fontSize=11;textShadow=1;fontStyle=1;rotation=0;fontColor=#34B5EC;fillColor=none;labelBackgroundColor=none;labelBorderColor=none;" vertex="1" parent="1">
          <mxGeometry x="240" y="510" width="150" height="130" as="geometry" />
        </mxCell>
        <mxCell id="t35xv_pp_AI4C0QZPNr3-3" value="&lt;font style=&quot;font-size: 120px;&quot;&gt;C&lt;/font&gt;" style="text;html=1;align=center;verticalAlign=middle;whiteSpace=wrap;rounded=0;strokeWidth=7;fontSize=11;textShadow=1;fontStyle=1;rotation=30;fontColor=#34B5EC;fillColor=none;labelBackgroundColor=none;labelBorderColor=none;" vertex="1" parent="1">
          <mxGeometry x="320" y="540" width="140" height="120" as="geometry" />
        </mxCell>
        <mxCell id="t35xv_pp_AI4C0QZPNr3-4" value="&lt;font style=&quot;font-size: 120px;&quot;&gt;.&lt;/font&gt;" style="text;html=1;align=center;verticalAlign=middle;whiteSpace=wrap;rounded=0;strokeWidth=7;fontSize=11;textShadow=1;fontStyle=1;rotation=30;fontColor=#34B5EC;fillColor=none;labelBackgroundColor=none;labelBorderColor=none;" vertex="1" parent="1">
          <mxGeometry x="423" y="660" width="54" height="30" as="geometry" />
        </mxCell>
        <mxCell id="t35xv_pp_AI4C0QZPNr3-5" value="&lt;font style=&quot;font-size: 120px;&quot;&gt;.&lt;/font&gt;" style="text;html=1;align=center;verticalAlign=middle;whiteSpace=wrap;rounded=0;strokeWidth=7;fontSize=11;textShadow=1;fontStyle=1;rotation=55;fontColor=#34B5EC;fillColor=none;labelBackgroundColor=none;labelBorderColor=none;" vertex="1" parent="1">
          <mxGeometry x="430" y="610" width="40" height="37.21" as="geometry" />
        </mxCell>
        <mxCell id="t35xv_pp_AI4C0QZPNr3-6" value="&lt;font style=&quot;font-size: 120px;&quot;&gt;.&lt;/font&gt;" style="text;html=1;align=center;verticalAlign=middle;whiteSpace=wrap;rounded=0;strokeWidth=7;fontSize=11;textShadow=1;fontStyle=1;rotation=105;fontColor=#34B5EC;fillColor=none;labelBackgroundColor=none;labelBorderColor=none;" vertex="1" parent="1">
          <mxGeometry x="440" y="670" width="50" height="30.01" as="geometry" />
        </mxCell>
      </root>
    </mxGraphModel>
  </diagram>
</mxfile>
